<svg width="18" height="18" viewBox="0 0 18 18" fill="none" xmlns="http://www.w3.org/2000/svg">
<path d="M14.25 2.43749H5.0625C4.58035 2.42334 4.11225 2.60091 3.76079 2.93128C3.40933 3.26166 3.20317 3.71789 3.1875 4.19999V13.5C3.20707 14.0657 3.4502 14.6005 3.86357 14.9871C4.27693 15.3738 4.82678 15.5807 5.3925 15.5625H14.25C14.3986 15.5605 14.5405 15.5007 14.6456 15.3956C14.7507 15.2905 14.8106 15.1486 14.8125 15V2.99999C14.8106 2.85141 14.7507 2.70946 14.6456 2.60439C14.5405 2.49932 14.3986 2.43943 14.25 2.43749ZM13.6875 14.4375H5.3925C5.12504 14.4561 4.86114 14.3678 4.65867 14.192C4.45621 14.0163 4.33172 13.7674 4.3125 13.5C4.33172 13.2326 4.45621 12.9837 4.65867 12.808C4.86114 12.6322 5.12504 12.5439 5.3925 12.5625H13.6875V14.4375ZM13.6875 11.4375H5.3925C5.01492 11.4379 4.64351 11.5333 4.3125 11.715V4.19999C4.32968 4.01691 4.41771 3.84778 4.55782 3.72868C4.69794 3.60959 4.87904 3.54995 5.0625 3.56249H13.6875V11.4375Z" fill="#245BCA"/>
<path d="M6.5625 6.5625H11.4375C11.5867 6.5625 11.7298 6.50324 11.8352 6.39775C11.9407 6.29226 12 6.14918 12 6C12 5.85082 11.9407 5.70774 11.8352 5.60225C11.7298 5.49676 11.5867 5.4375 11.4375 5.4375H6.5625C6.41332 5.4375 6.27024 5.49676 6.16475 5.60225C6.05926 5.70774 6 5.85082 6 6C6 6.14918 6.05926 6.29226 6.16475 6.39775C6.27024 6.50324 6.41332 6.5625 6.5625 6.5625ZM6.5625 9.1875H11.4375C11.5867 9.1875 11.7298 9.12824 11.8352 9.02275C11.9407 8.91726 12 8.77418 12 8.625C12 8.47582 11.9407 8.33274 11.8352 8.22725C11.7298 8.12176 11.5867 8.0625 11.4375 8.0625H6.5625C6.41332 8.0625 6.27024 8.12176 6.16475 8.22725C6.05926 8.33274 6 8.47582 6 8.625C6 8.77418 6.05926 8.91726 6.16475 9.02275C6.27024 9.12824 6.41332 9.1875 6.5625 9.1875Z" fill="#245BCA"/>
</svg>
