<svg width="16" height="16" viewBox="0 0 16 16" fill="none" xmlns="http://www.w3.org/2000/svg">
<path d="M7.52891 0.470594C7.52891 0.345785 7.5785 0.226088 7.66675 0.137834C7.75501 0.0495804 7.87471 0 7.99953 0H10.8232C10.948 0 11.0677 0.0495804 11.156 0.137834C11.2443 0.226088 11.2938 0.345785 11.2938 0.470594V1.41178C11.2938 1.53659 11.2443 1.65629 11.156 1.74454C11.0677 1.8328 10.948 1.88238 10.8232 1.88238H8.47014V2.82357C9.7183 2.82357 10.9153 3.31937 11.7979 4.2019C12.6805 5.08444 13.1763 6.28142 13.1763 7.52951V8.4707H14.1175C14.6168 8.4707 15.0956 8.66902 15.4486 9.02203C15.8017 9.37505 16 9.85384 16 10.3531V14.1178C16 14.3674 15.9008 14.6068 15.7243 14.7834C15.5478 14.9599 15.3084 15.059 15.0588 15.059H9.33043C9.26021 14.8606 9.14635 14.6805 8.99724 14.532L8.58309 14.1178H9.41138V12.2355H7.28702C7.39338 11.9362 7.46585 11.6209 7.50256 11.2943H9.40949C9.65912 11.2943 9.89853 11.3934 10.075 11.5699C10.2516 11.7464 10.3507 11.9858 10.3507 12.2355V14.1178H15.0569V10.3531C15.0569 10.1035 14.9577 9.86406 14.7812 9.68756C14.6047 9.51105 14.3653 9.41189 14.1157 9.41189H12.7038C12.579 9.41189 12.4593 9.36231 12.371 9.27405C12.2828 9.1858 12.2332 9.0661 12.2332 8.94129V7.52951C12.2336 6.58963 11.8825 5.68359 11.2487 4.98947C10.615 4.29535 9.74456 3.86337 8.80848 3.77844C7.87241 3.6935 6.93842 3.96176 6.1901 4.53048C5.44179 5.0992 4.93327 5.92725 4.76451 6.85185C4.46902 6.74222 4.16213 6.66613 3.84964 6.62503C4.02882 5.71323 4.47364 4.87478 5.12813 4.21512C5.78263 3.55547 6.61758 3.10406 7.52797 2.91768V0.470594H7.52891ZM7.52891 8.94129C7.52891 9.02861 7.50461 9.11421 7.45873 9.18851C7.41285 9.26281 7.34721 9.32288 7.26913 9.362C7.1094 8.92673 6.87917 8.52068 6.58768 8.16011V7.05892C6.58768 6.93411 6.63726 6.81441 6.72552 6.72615C6.81378 6.6379 6.93348 6.58832 7.0583 6.58832C7.18311 6.58832 7.30282 6.6379 7.39107 6.72615C7.47933 6.81441 7.52891 6.93411 7.52891 7.05892V8.94129ZM13.1763 10.8237C13.1763 10.6989 13.1267 10.5792 13.0385 10.4909C12.9502 10.4027 12.8305 10.3531 12.7057 10.3531C12.5809 10.3531 12.4612 10.4027 12.3729 10.4909C12.2847 10.5792 12.2351 10.6989 12.2351 10.8237V12.706C12.2351 12.8309 12.2847 12.9506 12.3729 13.0388C12.4612 13.1271 12.5809 13.1766 12.7057 13.1766C12.8305 13.1766 12.9502 13.1271 13.0385 13.0388C13.1267 12.9506 13.1763 12.8309 13.1763 12.706V10.8237ZM10.3526 7.05892C10.3526 6.93411 10.303 6.81441 10.2148 6.72615C10.1265 6.6379 10.0068 6.58832 9.88199 6.58832C9.75718 6.58832 9.63747 6.6379 9.54922 6.72615C9.46096 6.81441 9.41138 6.93411 9.41138 7.05892V8.94129C9.41138 9.0661 9.46096 9.1858 9.54922 9.27405C9.63747 9.36231 9.75718 9.41189 9.88199 9.41189C10.0068 9.41189 10.1265 9.36231 10.2148 9.27405C10.303 9.1858 10.3526 9.0661 10.3526 8.94129V7.05892ZM3.29337 14.1178C4.03318 14.1178 4.71651 13.8731 5.26619 13.4618L7.66633 15.8619C7.71003 15.9056 7.76191 15.9403 7.81902 15.964C7.87614 15.9877 7.93736 16 7.9992 16C8.06103 16 8.12227 15.9879 8.17942 15.9643C8.23656 15.9407 8.2885 15.906 8.33225 15.8623C8.37601 15.8186 8.41073 15.7667 8.43443 15.7096C8.45814 15.6525 8.47036 15.5913 8.47041 15.5295C8.47045 15.4676 8.45831 15.4064 8.43469 15.3493C8.41107 15.2921 8.37642 15.2402 8.33272 15.1964L5.93258 12.7964C6.37685 12.2023 6.60758 11.4756 6.58741 10.7341C6.56723 9.99253 6.29734 9.27949 5.82142 8.71042C5.3455 8.14135 4.69143 7.74957 3.9651 7.59852C3.23878 7.44747 2.48273 7.54599 1.81937 7.87812C1.15602 8.21026 0.624193 8.75657 0.310012 9.42859C-0.00416923 10.1006 -0.0823119 10.859 0.0882363 11.581C0.258785 12.3029 0.668038 12.9462 1.24973 13.4066C1.83143 13.867 2.5515 14.1176 3.29337 14.1178ZM3.29337 13.1766C2.66929 13.1766 2.07078 12.9287 1.62949 12.4875C1.1882 12.0462 0.940289 11.4477 0.940289 10.8237C0.940289 10.1996 1.1882 9.60114 1.62949 9.15987C2.07078 8.7186 2.66929 8.4707 3.29337 8.4707C3.91744 8.4707 4.51596 8.7186 4.95725 9.15987C5.39854 9.60114 5.64645 10.1996 5.64645 10.8237C5.64645 11.4477 5.39854 12.0462 4.95725 12.4875C4.51596 12.9287 3.91744 13.1766 3.29337 13.1766Z" fill="#245BCA"/>
</svg>
