<svg width="16" height="16" viewBox="0 0 16 16" fill="none" xmlns="http://www.w3.org/2000/svg">
<g clip-path="url(#clip0_16_640)">
<path d="M15.9642 0.686111C16.0006 0.595247 16.0095 0.495707 15.9898 0.399831C15.9701 0.303954 15.9228 0.215958 15.8535 0.146752C15.7843 0.0775455 15.6963 0.030172 15.6005 0.0105045C15.5046 -0.00916292 15.4051 -0.000259418 15.3142 0.0361113L0.767186 5.85511C0.639076 5.90639 0.527596 5.99202 0.445017 6.10258C0.362439 6.21313 0.311962 6.34433 0.299142 6.48173C0.286323 6.61912 0.311658 6.75739 0.372359 6.88132C0.43306 7.00524 0.526774 7.11002 0.643186 7.18411L5.63819 10.3621L7.16919 12.7681C7.24149 12.8773 7.35374 12.9537 7.48182 12.981C7.60989 13.0083 7.74355 12.9843 7.85409 12.9141C7.96463 12.8439 8.04322 12.7331 8.07297 12.6056C8.10272 12.4781 8.08125 12.344 8.01319 12.2321L6.63719 10.0701L14.1312 2.57611L12.2362 7.31411C12.2102 7.37534 12.1966 7.44115 12.1963 7.50769C12.196 7.57422 12.2091 7.64014 12.2346 7.70159C12.2601 7.76303 12.2976 7.81876 12.345 7.86551C12.3923 7.91227 12.4485 7.9491 12.5103 7.97386C12.572 7.99861 12.6381 8.0108 12.7046 8.00969C12.7712 8.00858 12.8368 7.99421 12.8977 7.96741C12.9586 7.94061 13.0135 7.90193 13.0593 7.85362C13.1051 7.80532 13.1407 7.74837 13.1642 7.68611L15.9642 0.686111ZM13.4242 1.86911L5.93019 9.36311L1.59119 6.60211L13.4242 1.86911Z" fill="#245BCA"/>
<path d="M16 12.5C16 13.4283 15.6313 14.3185 14.9749 14.9749C14.3185 15.6313 13.4283 16 12.5 16C11.5717 16 10.6815 15.6313 10.0251 14.9749C9.36875 14.3185 9 13.4283 9 12.5C9 11.5717 9.36875 10.6815 10.0251 10.0251C10.6815 9.36875 11.5717 9 12.5 9C13.4283 9 14.3185 9.36875 14.9749 10.0251C15.6313 10.6815 16 11.5717 16 12.5ZM14.007 10.821C13.9507 10.7872 13.8882 10.7649 13.8233 10.7553C13.7583 10.7457 13.6921 10.7489 13.6284 10.7649C13.5647 10.7809 13.5047 10.8092 13.452 10.8484C13.3993 10.8875 13.3547 10.9367 13.321 10.993L12.151 12.943L11.604 12.396C11.5101 12.3021 11.3828 12.2494 11.25 12.2494C11.1172 12.2494 10.9899 12.3021 10.896 12.396C10.8021 12.4899 10.7494 12.6172 10.7494 12.75C10.7494 12.8828 10.8021 13.0101 10.896 13.104L11.67 13.877C11.7506 13.9577 11.8485 14.019 11.9563 14.0562C12.0641 14.0934 12.179 14.1055 12.2922 14.0916C12.4053 14.0777 12.5139 14.0382 12.6095 13.9761C12.7051 13.9139 12.7853 13.8308 12.844 13.733L14.179 11.507C14.2128 11.4507 14.2351 11.3882 14.2447 11.3233C14.2543 11.2583 14.2511 11.1921 14.2351 11.1284C14.2191 11.0647 14.1908 11.0047 14.1516 10.952C14.1125 10.8993 14.0633 10.8547 14.007 10.821Z" fill="#245BCA"/>
</g>
<defs>
<clipPath id="clip0_16_640">
<rect width="16" height="16" fill="white"/>
</clipPath>
</defs>
</svg>
