<svg width="16" height="16" viewBox="0 0 16 16" fill="none" xmlns="http://www.w3.org/2000/svg">
<path d="M13.35 16H2.65C1.74 16 1 15.26 1 14.35V6.65C1 5.74 1.74 5 2.65 5H13.35C14.26 5 15 5.74 15 6.65V14.34C15 15.25 14.26 15.99 13.35 15.99V16ZM2.65 6C2.29 6 2 6.29 2 6.65V14.34C2 14.7 2.29 14.99 2.65 14.99H13.35C13.71 14.99 14 14.7 14 14.34V6.65C14 6.29 13.71 6 13.35 6H2.65Z" fill="#245BCA"/>
<path d="M12.54 6H3.45996V4.54C3.45996 2.04 5.49996 0 7.99996 0C10.5 0 12.54 2.04 12.54 4.54V6ZM4.45996 5H11.54V4.54C11.54 2.59 9.94996 1 7.99996 1C6.04996 1 4.45996 2.59 4.45996 4.54V5Z" fill="#245BCA"/>
<path d="M12 11.5C12.5523 11.5 13 11.0523 13 10.5C13 9.94772 12.5523 9.5 12 9.5C11.4477 9.5 11 9.94772 11 10.5C11 11.0523 11.4477 11.5 12 11.5Z" fill="#245BCA"/>
<path d="M8 11.5C8.55228 11.5 9 11.0523 9 10.5C9 9.94772 8.55228 9.5 8 9.5C7.44772 9.5 7 9.94772 7 10.5C7 11.0523 7.44772 11.5 8 11.5Z" fill="#245BCA"/>
<path d="M4 11.5C4.55228 11.5 5 11.0523 5 10.5C5 9.94772 4.55228 9.5 4 9.5C3.44772 9.5 3 9.94772 3 10.5C3 11.0523 3.44772 11.5 4 11.5Z" fill="#245BCA"/>
</svg>
